# xmcd CD database file
#
# Track frame offsets:
#	150
#	15701
#	29620
#	63001
#	80538
#	93087
#	121004
#	131322
#	169513
#
# Disc length: 2592 seconds
#
# Revision: 1
# Processed by: cddbd v1.5.2PL0 Copyright (c) Steve Scherf et al.
# Submitted via: CDex 1.70beta2
#
DISCID=5e0a1e09
DTITLE=Return to forever featuring Chick Corea - No mistery
DYEAR=1975
DGENRE=Jazz
TTITLE0=Return To Forever feat. Chick - Dayride
TTITLE1=Return To Forever feat. Chick - Jungle Waterfall
TTITLE2=Return To Forever feat. Chick - Flight Of The Newborn
TTITLE3=Return To Forever feat. Chick - Sofistifunk
TTITLE4=Return To Forever feat. Chick - Excerpt From The First Movemen
TTITLE5=Return To Forever feat. Chick - No Mystery
TTITLE6=Return To Forever feat. Chick - Interplay
TTITLE7=Return To Forever feat. Chick - Celebration Suite Part I
TTITLE8=Return To Forever feat. Chick - Celebration Suite Part II
EXTD=YEAR: 1975
EXTT0=
EXTT1=
EXTT2=
EXTT3=
EXTT4=
EXTT5=
EXTT6=
EXTT7=
EXTT8=
PLAYORDER=
